<svg xmlns="http://www.w3.org/2000/svg" viewBox="0 0 350 208.3451768560031" preserveAspectRatio="xMidYMid meet"><defs><linearGradient id="symbol-foil0.2" x1="0%" y1="0%" x2="100%" y2="100%"><stop offset="0%" stop-color="#c59e4b"/><stop offset="100%" stop-color="#a78336"/></linearGradient><linearGradient id="symbol-foil1.3" x1="0%" y1="0%" x2="100%" y2="100%"><stop offset="0%" stop-color="#a78336"/><stop offset="100%" stop-color="#c59e4b"/></linearGradient></defs><g transform="matrix(2.0099934819098264,0,0,2.0099934819098264,74.8299894811311,-46.863800359668744)" fill="url(#symbol-foil0.2)"><g><path d="M83.0033951,29.8232002c-1.7485046-1.0869007-11.6396027-6.5078011-34.706501-6.5078011   c-20.948801,0-30.8047009,4.4444008-31.2138939,4.6333008c-0.3809071,0.1763-0.6113071,0.5713005-0.5771065,0.9892998   c1.6844997,20.5498009,17.0321999,46.6924019,30.3099976,58.2162971c0.1865005,0.1621017,0.4204025,0.244606,0.6553001,0.244606   c0.1899033,0,0.3799019-0.0537033,0.5469017-0.1631012c7.5946999-4.9624023,14.5102005-12.7451019,22.4232979-25.2343025   C77.3388901,51.1152,83.4755936,35.4141006,83.4755936,30.6723995   C83.4755936,30.3267002,83.2968903,30.0053997,83.0033951,29.8232002z M75.5031891,28.7730999   c-4.1679993-0.4578991-9.521698-0.9167004-14.2448959-0.9167004h-0.7158012   c-9.3144913-0.0091991-17.3432999-0.0077991-30.1791992,6.1240997c-0.2441998,0.1166992-0.4312,0.3276024-0.5170994,0.5844002   c-0.0858994,0.2574005-0.0639992,0.5381012,0.0604992,0.7784004c7.8887024,15.2030983,17.0699005,25.6917,19.3586998,28.198101   c-1.0326004,1.6354027-2.137394,3.2695961-3.3239975,4.8745995c-11.6485023-8.7486992-22.5248013-28.6885986-27.1077003-39.0128021   c2.8405991-1.0548992,12.4786987-4.087801,29.4631996-4.087801C61.5057907,25.3153992,70.2168961,27.093399,75.5031891,28.7730999z    M50.358593,61.7695007c-2.1784019-2.4263992-8.0834999-9.3376999-14.1547012-19.3204002   c3.5774002-0.797699,13.3383026-2.7476997,24.1203995-2.9892998C59.2980003,42.7854996,56.1381912,52.1222992,50.358593,61.7695007   z M19.4895935,35.4665985c5.641407,11.321701,15.5709991,27.7423019,26.0840988,35.1555023   c0.1748009,0.1230011,0.3759995,0.1826019,0.5751991,0.1826019c0.302803,0,0.6011086-0.1367035,0.7974014-0.3950043   c9.6833-12.740799,14.4558983-27.5527992,15.4756012-30.9759979c0.0248985,0,0.0496979-0.0005989,0.0746994-0.0005989   c3.3984032,0,5.5464058,0.2641983,6.6308022,0.4477997c-0.4887009,2.9872971-2.4057007,12.8373985-7.6723022,22.4252968   c-5.3190002,9.6828995-12.0741997,19.5909042-14.1576996,22.5951996   C35.9306946,74.5770035,23.2844944,53.7619019,19.4895935,35.4665985z M68.7519989,60.9311981   c-6.0351067,9.5246048-11.4516068,16.2329025-17.0195045,21.0036011   c3.0636978-4.5844955,7.6379967-11.6794968,11.4755058-18.6657982c6.457489-11.7558022,7.9794922-23.5561028,8.0410004-24.0527   c0.0610886-0.4888-0.2436066-0.9491997-0.7177048-1.0844994c-0.0997009-0.028801-2.5092926-0.6987-8.0347023-0.6987   c-12.5354004,0-24.1823997,2.4735985-27.3712006,3.2098999c-0.9934998-1.690403-1.9856987-3.4556999-2.9608002-5.299202   c11.8862-5.4941998,19.528801-5.5098,28.3768997-5.4874001h0.7168007c7.7294006,0,17.2089005,1.2535,20.1493988,1.6707001   C80.7537918,36.4818001,75.2291946,50.7074013,68.7519989,60.9311981z"></path></g></g><g transform="matrix(2.275386933131047,0,0,2.275386933131047,-2.0023385915746124,136.7584180393576)" fill="url(#symbol-foil0.2)"><path d="M8.32 8.12 l0 11.88 l-3.18 0 l0 -11.88 l-4.26 0 l0 -2.74 l11.68 0 l0 2.74 l-4.24 0 z M16.09 19.74 q-1.37 -0.54 -2.35 -1.83 t-0.98 -3.37 t0.99 -3.36 t2.37 -1.82 t2.62 -0.54 q1.44 0 2.74 0.64 t2.13 1.88 t0.87 2.94 q0 0.52 -0.02 0.9 t-0.04 0.48 l-8.68 0 q0.24 1.16 1.2 1.58 t1.8 0.42 q1.08 0 1.72 -0.39 t1.1 -0.89 l2.32 1.34 q-1.88 2.56 -5.14 2.56 q-1.28 0 -2.65 -0.54 z M16.7 12.05 q-0.78 0.61 -0.88 1.49 l5.5 0 q-0.06 -0.52 -0.4 -1 t-0.91 -0.79 t-1.29 -0.31 q-1.24 0 -2.02 0.61 z M32.14 11.87 q-0.86 0.21 -1.58 0.99 t-0.72 2.28 l0 4.86 l-2.98 0 l0 -11 l2.98 0 l0 1.46 q0.74 -0.98 1.81 -1.33 t1.95 -0.33 l0 2.92 q-0.6 -0.06 -1.46 0.15 z M43.52 18.9 q-0.38 0.52 -1.31 0.93 t-2.03 0.41 q-1.7 0 -2.95 -0.76 t-1.91 -2.07 t-0.66 -2.91 t0.66 -2.91 t1.91 -2.07 t2.95 -0.76 q1.14 0 2.01 0.39 t1.33 0.99 l0 -1.14 l2.96 0 l0 11 l-2.96 0 l0 -1.1 z M42.82 12.25 q-0.82 -0.87 -2.2 -0.87 q-1.4 0 -2.21 0.87 t-0.81 2.25 q0 1.34 0.83 2.22 t2.19 0.88 q1.4 0 2.21 -0.83 t0.81 -2.27 q0 -1.38 -0.82 -2.25 z M58.65 10.02 q1.03 1.22 1.03 3.48 l0 6.5 l-3.06 0 l0 -6.5 q0 -2.22 -2.12 -2.22 q-0.82 0 -1.48 0.65 t-0.62 2.25 l0 5.82 l-2.98 0 l0 -11 l2.98 0 l0 0.98 q0.54 -0.54 1.36 -0.86 t1.58 -0.32 q2.28 0 3.31 1.22 z M72.43 22.77 q-1.47 1.37 -4.09 1.37 q-3.14 0 -5.26 -1.66 l1.46 -2.12 q0.68 0.54 1.61 0.88 t1.97 0.34 q2.82 0 2.82 -2.56 l0 -0.18 q-1.2 0.98 -3.08 0.98 q-1.74 0 -3.06 -0.73 t-2.02 -1.99 t-0.7 -2.78 q0 -1.54 0.7 -2.79 t2.01 -1.99 t3.07 -0.74 q1.88 0 3.08 0.98 l0 -0.78 l2.96 0 l0 10.02 q0 2.38 -1.47 3.75 z M69.57 16.91 q0.69 -0.39 1.09 -1.08 t0.4 -1.51 q0 -0.84 -0.4 -1.52 t-1.09 -1.07 t-1.53 -0.39 q-1.36 0 -2.19 0.85 t-0.83 2.13 q0 1.32 0.81 2.15 t2.21 0.83 q0.84 0 1.53 -0.39 z M85.2 18.9 q-0.38 0.52 -1.31 0.93 t-2.03 0.41 q-1.7 0 -2.95 -0.76 t-1.91 -2.07 t-0.66 -2.91 t0.66 -2.91 t1.91 -2.07 t2.95 -0.76 q1.14 0 2.01 0.39 t1.33 0.99 l0 -1.14 l2.96 0 l0 11 l-2.96 0 l0 -1.1 z M84.5 12.25 q-0.82 -0.87 -2.2 -0.87 q-1.4 0 -2.21 0.87 t-0.81 2.25 q0 1.34 0.83 2.22 t2.19 0.88 q1.4 0 2.21 -0.83 t0.81 -2.27 q0 -1.38 -0.82 -2.25 z M100.44 11.38 l7 0 l0 2.76 l-7 0 l0 3.12 l7.92 0 l0 2.74 l-11.08 0 l0 -14.62 l11.08 0 l0 2.74 l-7.92 0 l0 3.26 z M109.1 9.04 l3.32 0 l2.56 5.38 l2.56 -5.38 l3.34 0 l-5.9 11.44 z M124.83 19.74 q-1.37 -0.54 -2.35 -1.83 t-0.98 -3.37 t0.99 -3.36 t2.37 -1.82 t2.62 -0.54 q1.44 0 2.74 0.64 t2.13 1.88 t0.87 2.94 q0 0.52 -0.02 0.9 t-0.04 0.48 l-8.68 0 q0.24 1.16 1.2 1.58 t1.8 0.42 q1.08 0 1.72 -0.39 t1.1 -0.89 l2.32 1.34 q-1.88 2.56 -5.14 2.56 q-1.28 0 -2.65 -0.54 z M125.44 12.05 q-0.78 0.61 -0.88 1.49 l5.5 0 q-0.06 -0.52 -0.4 -1 t-0.91 -0.79 t-1.29 -0.31 q-1.24 0 -2.02 0.61 z M144.85 10.02 q1.03 1.22 1.03 3.48 l0 6.5 l-3.06 0 l0 -6.5 q0 -2.22 -2.12 -2.22 q-0.82 0 -1.48 0.65 t-0.62 2.25 l0 5.82 l-2.98 0 l0 -11 l2.98 0 l0 0.98 q0.54 -0.54 1.36 -0.86 t1.58 -0.32 q2.28 0 3.31 1.22 z M152.5 16.08 q0 0.7 0.24 1.17 t1.12 0.47 q0.4 0 0.76 -0.04 l0 2.52 q-0.72 0.08 -1.34 0.08 q-1.28 0 -2.07 -0.21 t-1.23 -0.81 t-0.44 -1.72 l0 -6.1 l-1.34 0 l0 -2.62 l1.34 0 l0 -2.94 l2.96 0 l0 2.94 l2.2 0 l0 2.62 l-2.2 0 l0 4.64 z"></path></g><g transform="matrix(0.34711031825280825,0,0,0.34711031825280825,34.32660612824284,201.2780105645166)" fill="url(#symbol-foil1.3)"><path d="M3.26 5.84 l0 12.96 l6.6 0 l0 1.2 l-7.92 0 l0 -14.16 l1.32 0 z M22.668 5.84 l1.2 0 l0 4.56 l-1.2 0 l0 -4.56 z M47.136 5.84 l0 1.2 l-7.34 0 l0 5.04 l6.88 0 l0 1.2 l-6.88 0 l0 5.52 l7.66 0 l0 1.2 l-8.98 0 l0 -14.16 l8.66 0 z M60.424 5.84 l4.56 12.42 l4.6 -12.42 l1.4 0 l-5.38 14.16 l-1.32 0 l-5.28 -14.16 l1.42 0 z M92.192 5.84 l0 1.2 l-7.34 0 l0 5.04 l6.88 0 l0 1.2 l-6.88 0 l0 5.52 l7.66 0 l0 1.2 l-8.98 0 l0 -14.16 l8.66 0 z M107.76 5.84 l8.62 12.4 l0.04 0 l0 -12.4 l1.32 0 l0 14.16 l-1.7 0 l-8.62 -12.4 l-0.04 0 l0 12.4 l-1.32 0 l0 -14.16 l1.7 0 z M140.948 5.84 l0 1.2 l-7.34 0 l0 5.04 l6.88 0 l0 1.2 l-6.88 0 l0 5.52 l7.66 0 l0 1.2 l-8.98 0 l0 -14.16 l8.66 0 z M156.656 5.84 l5.16 11.88 l5.16 -11.88 l1.88 0 l0 14.16 l-1.32 0 l0 -12.48 l-0.04 0 l-5.4 12.48 l-0.58 0 l-5.48 -12.48 l-0.04 0 l0 12.48 l-1.32 0 l0 -14.16 l1.98 0 z M191.924 5.84 l0 1.2 l-7.34 0 l0 5.04 l6.88 0 l0 1.2 l-6.88 0 l0 5.52 l7.66 0 l0 1.2 l-8.98 0 l0 -14.16 l8.66 0 z M207.492 5.84 l8.62 12.4 l0.04 0 l0 -12.4 l1.32 0 l0 14.16 l-1.7 0 l-8.62 -12.4 l-0.04 0 l0 12.4 l-1.32 0 l0 -14.16 l1.7 0 z M241.32 5.84 l0 1.2 l-4.84 0 l0 12.96 l-1.32 0 l0 -12.96 l-4.84 0 l0 -1.2 l11 0 z M255.488 5.84 l0 14.16 l-1.32 0 l0 -14.16 l1.32 0 z M278.696 5.84 l0 1.2 l-7.34 0 l0 5.04 l6.88 0 l0 1.2 l-6.88 0 l0 5.52 l7.66 0 l0 1.2 l-8.98 0 l0 -14.16 l8.66 0 z M293.884 5.84 l0 12.96 l6.6 0 l0 1.2 l-7.92 0 l0 -14.16 l1.32 0 z M335.5 5.48 q3.14 0 4.88 2.22 l-1.08 0.9 q-0.6 -0.9 -1.6 -1.41 t-2.2 -0.51 q-2.64 0 -4.3 1.74 t-1.7 4.5 q0 2.74 1.67 4.47 t4.33 1.77 q1.14 0 2.32 -0.57 t1.86 -1.63 l1.08 0.82 q-1.88 2.58 -5.26 2.58 q-3.28 -0.02 -5.27 -2.12 t-2.05 -5.32 q0 -3.26 2.05 -5.33 t5.27 -2.11 z M354.248 12.92 q0 2.7 1.66 4.45 t4.34 1.79 q2.7 0 4.34 -1.77 t1.66 -4.47 q0 -2.74 -1.64 -4.47 t-4.38 -1.77 q-2.68 0 -4.32 1.76 t-1.66 4.48 z M360.248 5.48 q2.16 0 3.82 0.95 t2.57 2.66 t0.93 3.83 q0 3.26 -2.06 5.33 t-5.26 2.11 q-3.22 0 -5.24 -2.09 t-2.08 -5.35 q0.02 -3.26 2.04 -5.32 t5.28 -2.12 z M382.896 5.84 l8.62 12.4 l0.04 0 l0 -12.4 l1.32 0 l0 14.16 l-1.7 0 l-8.62 -12.4 l-0.04 0 l0 12.4 l-1.32 0 l0 -14.16 l1.7 0 z M409.124 5.84 l8.62 12.4 l0.04 0 l0 -12.4 l1.32 0 l0 14.16 l-1.7 0 l-8.62 -12.4 l-0.04 0 l0 12.4 l-1.32 0 l0 -14.16 l1.7 0 z M442.312 5.84 l0 1.2 l-7.34 0 l0 5.04 l6.88 0 l0 1.2 l-6.88 0 l0 5.52 l7.66 0 l0 1.2 l-8.98 0 l0 -14.16 l8.66 0 z M462.58 5.48 q3.14 0 4.88 2.22 l-1.08 0.9 q-0.6 -0.9 -1.6 -1.41 t-2.2 -0.51 q-2.64 0 -4.3 1.74 t-1.7 4.5 q0 2.74 1.67 4.47 t4.33 1.77 q1.14 0 2.32 -0.57 t1.86 -1.63 l1.08 0.82 q-1.88 2.58 -5.26 2.58 q-3.28 -0.02 -5.27 -2.12 t-2.05 -5.32 q0 -3.26 2.05 -5.33 t5.27 -2.11 z M490.228 5.84 l0 1.2 l-4.84 0 l0 12.96 l-1.32 0 l0 -12.96 l-4.84 0 l0 -1.2 l11 0 z M511.736 5.84 l0 1.2 l-7.34 0 l0 5.04 l6.88 0 l0 1.2 l-6.88 0 l0 5.52 l7.66 0 l0 1.2 l-8.98 0 l0 -14.16 l8.66 0 z M509.676 2.08 l-2.68 2.88 l-1 0 l2.08 -2.88 l1.6 0 z M550.132 5.84 l0 1.2 l-7.34 0 l0 5.04 l6.88 0 l0 1.2 l-6.88 0 l0 5.52 l7.66 0 l0 1.2 l-8.98 0 l0 -14.16 l8.66 0 z M573.3 5.84 l0 1.2 l-4.84 0 l0 12.96 l-1.32 0 l0 -12.96 l-4.84 0 l0 -1.2 l11 0 z M603.856 5.84 l5.16 11.88 l5.16 -11.88 l1.88 0 l0 14.16 l-1.32 0 l0 -12.48 l-0.04 0 l-5.4 12.48 l-0.58 0 l-5.48 -12.48 l-0.04 0 l0 12.48 l-1.32 0 l0 -14.16 l1.98 0 z M639.124 5.84 l0 1.2 l-7.34 0 l0 5.04 l6.88 0 l0 1.2 l-6.88 0 l0 5.52 l7.66 0 l0 1.2 l-8.98 0 l0 -14.16 l8.66 0 z M637.064 2.08 l-2.68 2.88 l-1 0 l2.08 -2.88 l1.6 0 z M654.832 5.84 l5.16 11.88 l5.16 -11.88 l1.88 0 l0 14.16 l-1.32 0 l0 -12.48 l-0.04 0 l-5.4 12.48 l-0.58 0 l-5.48 -12.48 l-0.04 0 l0 12.48 l-1.32 0 l0 -14.16 l1.98 0 z M681.84 12.92 q0 2.7 1.66 4.45 t4.34 1.79 q2.7 0 4.34 -1.77 t1.66 -4.47 q0 -2.74 -1.64 -4.47 t-4.38 -1.77 q-2.68 0 -4.32 1.76 t-1.66 4.48 z M687.84 5.48 q2.16 0 3.82 0.95 t2.57 2.66 t0.93 3.83 q0 3.26 -2.06 5.33 t-5.26 2.11 q-3.22 0 -5.24 -2.09 t-2.08 -5.35 q0.02 -3.26 2.04 -5.32 t5.28 -2.12 z M713.008 12.08 q1.54 0 2.38 -0.69 t0.84 -1.83 t-0.82 -1.82 t-2.44 -0.7 l-2.86 0 l0 5.04 l2.9 0 z M712.608 5.84 q4.9 0 4.94 3.72 q0 3.14 -3.62 3.64 l4.12 6.8 l-1.5 0 l-3.98 -6.72 l-2.46 0 l0 6.72 l-1.32 0 l0 -14.16 l3.82 0 z M732.976 15.04 l6.5 0 l-3.2 -7.76 z M737.016 5.84 l5.96 14.16 l-1.48 0 l-1.54 -3.76 l-7.5 0 l-1.6 3.76 l-1.38 0 l6.18 -14.16 l1.36 0 z M760.124 18.8 q1.7 0 2.6 -0.73 t0.9 -1.99 q0 -1.36 -0.93 -2.14 t-2.43 -0.78 l-3.26 0 l0 5.64 l3.12 0 z M759.824 11.96 q1.44 0 2.31 -0.62 t0.87 -1.76 q0 -2.48 -3 -2.54 l-3 0 l0 4.92 l2.82 0 z M759.864 5.84 q2.22 0 3.33 0.9 t1.13 2.84 q0 1.12 -0.66 1.91 t-1.88 1.03 l0 0.04 q1.38 0.08 2.26 1.04 t0.9 2.44 q0 1.88 -1.25 2.91 t-3.45 1.05 l-4.56 0 l0 -14.16 l4.18 0 z M780.272 5.84 l0 12.96 l6.6 0 l0 1.2 l-7.92 0 l0 -14.16 l1.32 0 z M808.28 5.84 l0 1.2 l-7.34 0 l0 5.04 l6.88 0 l0 1.2 l-6.88 0 l0 5.52 l7.66 0 l0 1.2 l-8.98 0 l0 -14.16 l8.66 0 z"></path></g></svg>